<svg preserveAspectRatio="none" width="100%" height="100%" overflow="visible" style="display: block;" viewBox="0 0 161.947 161.947" fill="none" xmlns="http://www.w3.org/2000/svg">
<g id="basil:document-solid" opacity="0.7">
<g id="Vector">
<path fill-rule="evenodd" clip-rule="evenodd" d="M96.1562 16.8695C96.1562 16.4221 95.9785 15.993 95.6621 15.6767C95.3458 15.3603 94.9167 15.1826 94.4693 15.1826H47.2346C42.3132 15.1826 37.5933 17.1376 34.1132 20.6176C30.6332 24.0976 28.6782 28.8176 28.6782 33.739V128.208C28.6782 133.13 30.6332 137.85 34.1132 141.33C37.5933 144.81 42.3132 146.765 47.2346 146.765H114.713C119.634 146.765 124.354 144.81 127.834 141.33C131.314 137.85 133.269 133.13 133.269 128.208V61.7222C133.269 61.2748 133.091 60.8457 132.775 60.5293C132.459 60.213 132.03 60.0352 131.582 60.0352H101.217C99.8749 60.0352 98.5876 59.502 97.6385 58.5529C96.6894 57.6039 96.1562 56.3166 96.1562 54.9744V16.8695ZM101.217 82.6606C102.559 82.6606 103.847 83.1938 104.796 84.1429C105.745 85.092 106.278 86.3793 106.278 87.7215C106.278 89.0637 105.745 90.351 104.796 91.3C103.847 92.2491 102.559 92.7823 101.217 92.7823H60.7303C59.388 92.7823 58.1008 92.2491 57.1517 91.3C56.2026 90.351 55.6694 89.0637 55.6694 87.7215C55.6694 86.3793 56.2026 85.092 57.1517 84.1429C58.1008 83.1938 59.388 82.6606 60.7303 82.6606H101.217ZM101.217 109.652C102.559 109.652 103.847 110.185 104.796 111.134C105.745 112.083 106.278 113.37 106.278 114.713C106.278 116.055 105.745 117.342 104.796 118.291C103.847 119.24 102.559 119.774 101.217 119.774H60.7303C59.388 119.774 58.1008 119.24 57.1517 118.291C56.2026 117.342 55.6694 116.055 55.6694 114.713C55.6694 113.37 56.2026 112.083 57.1517 111.134C58.1008 110.185 59.388 109.652 60.7303 109.652H101.217Z" fill="url(#paint0_linear_0_30)" fill-opacity="0.7" style="mix-blend-mode:color-burn"/>
</g>
<g id="Vector_2">
<path d="M106.278 19.0558C106.278 17.8142 107.58 17.0247 108.545 17.8007C109.364 18.462 110.09 19.2312 110.725 20.1085L131.056 48.429C131.515 49.0768 131.015 49.9135 130.219 49.9135H107.965C107.517 49.9135 107.088 49.7358 106.772 49.4194C106.456 49.1031 106.278 48.674 106.278 48.2266V19.0558Z" fill="url(#paint1_linear_0_30)" fill-opacity="0.7" style="mix-blend-mode:color-burn"/>
</g>
</g>
<defs>
<linearGradient id="paint0_linear_0_30" x1="58.3319" y1="19.2988" x2="130.512" y2="147.355" gradientUnits="userSpaceOnUse">
<stop offset="0.110577" stop-color="#CDBFF4"/>
<stop offset="0.730769" stop-color="#8559FF"/>
</linearGradient>
<linearGradient id="paint1_linear_0_30" x1="118.755" y1="17.4925" x2="118.755" y2="49.9135" gradientUnits="userSpaceOnUse">
<stop stop-color="#AE90FF"/>
<stop offset="1" stop-color="#8559FF"/>
</linearGradient>
</defs>
</svg>
