<svg preserveAspectRatio="none" width="100%" height="100%" overflow="visible" style="display: block;" viewBox="0 0 271 61.6182" fill="none" xmlns="http://www.w3.org/2000/svg">
<g id="Group">
<path id="Vector" d="M8.45914 6.974H0V40.6134H8.45914V6.974Z" fill="var(--fill-0, white)"/>
<path id="Vector_2" d="M41.3784 7.03554H32.9193V22.2611C32.9588 22.2611 32.9676 22.5597 32.95 23.1526C32.9281 23.7454 32.9193 24.4305 32.9193 25.2078L22.6798 7.03554H14.6504V40.6134H23.1095V23.4249L25.1925 27.3553L32.7921 40.6134H41.3741V7.03554H41.3784Z" fill="var(--fill-0, white)"/>
<path id="Vector_3" d="M65.7743 22.2611C65.8138 22.2611 65.8269 22.5597 65.805 23.1526C65.7831 23.7454 65.7743 24.4305 65.7743 25.2078L55.5391 7.03554H47.5098V40.6134H55.9689V23.4249L58.0519 27.3553L65.6515 40.6134H74.2334V7.03554H65.7743V22.2611Z" fill="var(--fill-0, white)"/>
<path id="Vector_4" d="M103.842 9.39776C102.535 8.43601 101.044 7.72021 99.3689 7.25031C97.6938 6.78041 95.9748 6.54325 94.2207 6.54325C92.506 6.54325 90.8089 6.78041 89.1338 7.25031C87.4586 7.72021 85.9764 8.43601 84.6871 9.39776C83.4023 10.3595 82.3586 11.5672 81.5605 13.0208C80.7623 14.4744 80.3633 16.1608 80.3633 18.0843V29.5638C80.3633 31.4873 80.7623 33.1649 81.5605 34.5966C82.3586 36.0282 83.411 37.2271 84.7178 38.1888C86.0246 39.1506 87.5156 39.8664 89.1908 40.3363C90.8659 40.8062 92.563 41.0434 94.2777 41.0434C96.0361 41.0434 97.742 40.8062 99.3952 40.3363C101.048 39.8664 102.531 39.1506 103.842 38.1888C105.149 37.2271 106.201 36.0282 106.999 34.5966C107.797 33.1649 108.196 31.4873 108.196 29.5638V18.0843C108.196 16.1608 107.797 14.4744 106.999 13.0208C106.201 11.5672 105.149 10.3595 103.842 9.39776ZM99.6715 29.5638C99.6715 30.7496 99.1102 31.6498 97.9876 32.2646C96.865 32.8795 95.6283 33.1869 94.2777 33.1869C93.6243 33.1869 92.9709 33.1166 92.3175 32.9717C91.6641 32.8311 91.0721 32.6028 90.5414 32.2954C90.0108 31.988 89.5898 31.6103 89.2829 31.158C88.9759 30.71 88.8224 30.1743 88.8224 29.5638V18.0843C88.8224 17.4695 88.9759 16.9161 89.2829 16.4287C89.5898 15.9368 89.9977 15.5372 90.5107 15.2342C91.0194 14.9268 91.5939 14.694 92.2297 14.5271C92.8612 14.3646 93.5059 14.2812 94.1593 14.2812C94.8521 14.2812 95.5275 14.3515 96.1809 14.4964C96.8343 14.6413 97.4263 14.8653 97.9569 15.1727C98.4875 15.4801 98.9085 15.8797 99.2111 16.3716C99.518 16.8634 99.6715 17.4343 99.6715 18.0887V29.5638V29.5638Z" fill="var(--fill-0, white)"/>
<path id="Vector_5" d="M136.943 10.7201C135.922 9.61339 134.645 8.72629 133.111 8.04999C131.58 7.37369 129.791 7.03554 127.747 7.03554H114.324V40.6134H122.783V30.7939H127.747C129.791 30.7939 131.58 30.4558 133.111 29.7795C134.641 29.1032 135.922 28.2029 136.943 27.0786C137.965 25.9544 138.728 24.6765 139.241 23.2404C139.75 21.8088 140.009 20.3552 140.009 18.884C140.009 17.4084 139.754 15.9592 139.241 14.5232C138.732 13.0915 137.965 11.8224 136.943 10.7201ZM130.598 21.9537C129.962 22.8144 129.015 23.2448 127.747 23.2448H122.783V14.9579H127.747C129.015 14.9579 129.962 15.3883 130.598 16.2447C131.229 17.1054 131.549 18.054 131.549 19.0992C131.549 20.1444 131.234 21.0929 130.598 21.9537Z" fill="var(--fill-0, #201C2D)"/>
<path id="Vector_6" d="M170.288 25.4225C171.432 23.644 172.007 21.1979 172.007 18.0887C171.963 16.1256 171.616 14.4349 170.963 13.0252C170.31 11.6111 169.433 10.4693 168.328 9.58657C167.227 8.70826 165.916 8.06271 164.407 7.6543C162.894 7.24588 161.28 7.03947 159.566 7.03947H146.143V40.6174H154.725V30.8769L165.446 45.2593H179.001L166.6 28.6284C168.13 27.9214 169.367 26.8586 170.288 25.4225ZM159.684 14.9531C161.035 14.9531 162.035 15.3527 162.688 16.1476C163.342 16.9468 163.67 17.8251 163.67 18.7869C163.67 19.7487 163.342 20.627 162.688 21.4262C162.035 22.2255 161.035 22.6208 159.684 22.6208H154.72V14.9487H159.684V14.9531Z" fill="var(--fill-0, #201C2D)"/>
<path id="Vector_7" d="M201.611 9.39776C200.305 8.43601 198.814 7.72021 197.138 7.25031C195.463 6.78041 193.744 6.54325 191.99 6.54325C190.276 6.54325 188.578 6.78041 186.903 7.25031C185.228 7.72021 183.746 8.43601 182.457 9.39776C181.172 10.3595 180.128 11.5672 179.33 13.0208C178.532 14.4744 178.133 16.1608 178.133 18.0843V29.5638C178.133 31.4873 178.532 33.1649 179.33 34.5966C180.128 36.0282 181.181 37.2271 182.487 38.1888C183.794 39.1506 185.285 39.8664 186.96 40.3363C188.635 40.8062 190.333 41.0434 192.047 41.0434C193.806 41.0434 195.512 40.8062 197.165 40.3363C198.818 39.8664 200.3 39.1506 201.611 38.1888C202.918 37.2271 203.971 36.0282 204.769 34.5966C205.567 33.1649 205.966 31.4873 205.966 29.5638V18.0843C205.966 16.1608 205.567 14.4744 204.769 13.0208C203.971 11.5672 202.918 10.3595 201.611 9.39776ZM197.445 29.5638C197.445 30.7496 196.884 31.6498 195.761 32.2646C194.639 32.8795 193.402 33.1869 192.052 33.1869C191.398 33.1869 190.745 33.1166 190.091 32.9717C189.438 32.8311 188.846 32.6028 188.315 32.2954C187.785 31.988 187.364 31.6103 187.057 31.158C186.75 30.71 186.596 30.1743 186.596 29.5638V18.0843C186.596 17.4695 186.75 16.9161 187.057 16.4287C187.364 15.9368 187.772 15.5372 188.285 15.2342C188.793 14.9268 189.368 14.694 190.004 14.5271C190.635 14.3646 191.28 14.2812 191.933 14.2812C192.626 14.2812 193.301 14.3515 193.955 14.4964C194.608 14.6413 195.2 14.8653 195.731 15.1727C196.261 15.4801 196.682 15.8797 196.985 16.3716C197.292 16.8634 197.445 17.4343 197.445 18.0887V29.5638V29.5638Z" fill="var(--fill-0, #201C2D)"/>
<path id="Vector_8" d="M224.693 28.2156H230.363V29.4453C230.363 30.7539 229.85 31.7377 228.832 32.392C227.81 33.0463 226.688 33.3757 225.46 33.3757C224.232 33.3757 223.109 33.0463 222.088 32.392C221.066 31.7377 220.557 30.7539 220.557 29.4453V17.9042C220.557 16.6746 221.035 15.726 221.996 15.0497C222.956 14.3734 224.026 14.0353 225.214 14.0353C226.153 14.0353 227.065 14.2724 227.942 14.7423C228.819 15.2122 229.486 15.9588 229.933 16.982L236.984 13.6664C236.414 12.3182 235.686 11.1895 234.809 10.2893C233.932 9.38899 232.972 8.66437 231.928 8.11104C230.885 7.5577 229.801 7.15808 228.679 6.91215C227.556 6.66622 226.442 6.54325 225.337 6.54325C223.701 6.54325 222.088 6.78041 220.496 7.25031C218.904 7.72021 217.483 8.43601 216.233 9.39776C214.988 10.3595 213.988 11.5453 213.23 12.9593C212.475 14.369 212.094 16.0203 212.094 17.8998V29.4409C212.094 31.3644 212.471 33.0551 213.23 34.5043C213.984 35.958 214.988 37.1656 216.233 38.1274C217.479 39.0891 218.9 39.8137 220.496 40.3056C222.088 40.7974 223.701 41.0434 225.337 41.0434C227.012 41.0434 228.648 40.7974 230.24 40.3056C231.832 39.8137 233.244 39.0891 234.467 38.1274C235.695 37.1656 236.673 35.958 237.41 34.5043C238.147 33.0507 238.515 31.3644 238.515 29.4409V21.0925H230.034L224.693 28.2156Z" fill="var(--fill-0, #201C2D)"/>
<path id="Vector_9" d="M254.125 6.33941e-05H240.57L257.44 22.6298H271L254.125 6.33941e-05Z" fill="var(--fill-0, #201C2D)"/>
<path id="Vector_10" d="M0.254345 48.6538H0V61.4113H0.254345V61.4157H8.33196V59.9489H1.60938V55.7022H7.86713V54.2355H1.60938V50.1118H8.33196V48.6494H0.254345V48.6538Z" fill="var(--fill-0, #201C2D)"/>
<path id="Vector_11" d="M27.0364 50.4412C26.4225 49.8703 25.677 49.4223 24.8131 49.1105C23.9623 48.8031 22.9976 48.6494 21.9539 48.6494H17.2441V61.4113H21.9539C23.002 61.4113 23.9623 61.2576 24.8131 60.9502C25.6726 60.6384 26.4225 60.1948 27.032 59.6327C27.6459 59.0662 28.1239 58.3811 28.444 57.5906C28.7598 56.8177 28.922 55.957 28.922 55.0304C28.922 54.1169 28.7598 53.2606 28.444 52.4833C28.1239 51.7016 27.6503 51.0121 27.0364 50.4412ZM26.9399 57.0812C26.6943 57.6741 26.3435 58.1879 25.8875 58.6051C25.4314 59.0223 24.8701 59.356 24.2167 59.5888C23.5545 59.8259 22.7915 59.9489 21.9451 59.9489H18.8448V50.1118H21.9451C22.7871 50.1118 23.5501 50.2304 24.2167 50.4719C24.8701 50.7047 25.427 51.0384 25.8831 51.4644C26.3391 51.8904 26.6943 52.4042 26.9355 53.0015C27.1855 53.6119 27.3127 54.2926 27.3127 55.0347C27.317 55.7813 27.1899 56.4708 26.9399 57.0812Z" fill="var(--fill-0, #201C2D)"/>
<path id="Vector_12" d="M46.0101 56.8489C46.0101 57.3803 45.9268 57.859 45.7558 58.2718C45.5935 58.6714 45.3611 59.0183 45.0717 59.295C44.7822 59.5717 44.4446 59.7781 44.0367 59.923C43.6201 60.0723 43.1465 60.1514 42.6247 60.1514C42.1116 60.1514 41.6424 60.0767 41.2258 59.923C40.8136 59.7737 40.4715 59.5673 40.1821 59.2906C39.8883 59.014 39.6603 58.6714 39.498 58.2718C39.3314 57.859 39.2437 57.3803 39.2437 56.8489V48.6499H37.6387V56.8489C37.6387 57.556 37.7571 58.2059 37.9939 58.7812C38.2351 59.3697 38.5815 59.8835 39.0288 60.3051C39.4761 60.7311 40.0199 61.0604 40.6382 61.2844C41.2433 61.504 41.9143 61.6182 42.6335 61.6182C43.357 61.6182 44.0324 61.5084 44.6375 61.2844C45.2602 61.0604 45.7996 60.7311 46.2425 60.3007C46.681 59.8791 47.0275 59.3697 47.2687 58.7768C47.5055 58.2015 47.6239 57.5516 47.6239 56.8445V48.6455H46.0145V56.8489H46.0101Z" fill="var(--fill-0, #201C2D)"/>
<path id="Vector_13" d="M67.5075 51.4123L68.6433 50.3759C65.8236 47.8068 61.2366 47.8068 58.4169 50.3759C57.0487 51.6187 56.2988 53.2743 56.2988 55.0309C56.2988 56.7876 57.0531 58.4432 58.4169 59.686C59.8246 60.9683 61.6795 61.6095 63.5301 61.6095C65.3807 61.6095 67.2356 60.9683 68.6433 59.686L67.5075 58.6496C65.3149 60.6478 61.7453 60.6478 59.5527 58.6496C58.4914 57.6834 57.9038 56.3967 57.9038 55.0266C57.9038 53.6564 58.4871 52.374 59.5527 51.4035C61.7453 49.4141 65.3105 49.4141 67.5075 51.4123Z" fill="var(--fill-0, #201C2D)"/>
<path id="Vector_14" d="M81.2715 48.654L76.2285 61.4159H77.9388L79.2456 58.109H85.6612L86.968 61.4159H88.6738L83.6308 48.654H81.2715ZM79.8244 56.6422L82.4556 49.989L85.0867 56.6422H79.8244Z" fill="var(--fill-0, #201C2D)"/>
<path id="Vector_15" d="M100.058 48.6494H98.4485H94.1816V50.1118H98.4485V61.4113H100.058V50.1118H104.325V48.6494H100.058Z" fill="var(--fill-0, #201C2D)"/>
<path id="Vector_16" d="M114.302 48.654H112.697V61.4159H114.302V48.654Z" fill="var(--fill-0, #201C2D)"/>
<path id="Vector_17" d="M130.215 48.4478C126.308 48.4478 123.133 51.4033 123.133 55.0307C123.133 58.6625 126.312 61.6137 130.215 61.6137C134.122 61.6137 137.302 58.6581 137.302 55.0307C137.297 51.4033 134.122 48.4478 130.215 48.4478ZM130.215 60.1557C127.194 60.1557 124.738 57.8589 124.738 55.0351C124.738 52.2113 127.194 49.9145 130.215 49.9145C133.236 49.9145 135.692 52.2113 135.692 55.0351C135.692 57.8545 133.236 60.1557 130.215 60.1557Z" fill="var(--fill-0, #201C2D)"/>
<path id="Vector_18" d="M154.571 55.8342C154.571 57.2175 154.755 59.1849 154.755 59.1849C154.755 59.1849 154.115 57.8455 152.742 55.922L147.568 48.654H146.125V61.4159H147.73V54.2357C147.73 52.8523 147.546 50.8849 147.546 50.8849C147.546 50.8849 148.19 52.2287 149.559 54.1522L154.733 61.4203H156.176V48.6584H154.571V55.8342V55.8342Z" fill="var(--fill-0, #201C2D)"/>
</g>
</svg>
