<svg preserveAspectRatio="none" width="100%" height="100%" overflow="visible" style="display: block;" viewBox="0 0 85 83" fill="none" xmlns="http://www.w3.org/2000/svg">
<g id="ic:baseline-whatsapp">
<path d="M0 40C0 17.9086 17.9086 0 40 0H45C67.0914 0 85 17.9086 85 40V43C85 65.0914 67.0914 83 45 83H40C17.9086 83 0 65.0914 0 43V40Z" fill="var(--fill-0, #D9D9D9)"/>
<path id="Vector" d="M57.0251 26.9656C55.136 25.0675 52.886 23.5625 50.4064 22.5383C47.9268 21.5142 45.2672 20.9913 42.5824 21.0001C31.3332 21.0001 22.1648 30.1226 22.1648 41.3156C22.1648 44.903 23.1126 48.388 24.8844 51.463L22 62L32.8166 59.171C35.804 60.7905 39.1623 61.6515 42.5824 61.6515C53.8317 61.6515 63 52.529 63 41.3361C63 35.9036 60.8779 30.7991 57.0251 26.9656ZM42.5824 58.2075C39.5332 58.2075 36.5457 57.3875 33.9291 55.85L33.3111 55.481L26.8829 57.162L28.593 50.93L28.1809 50.2945C26.4864 47.603 25.5868 44.4916 25.5849 41.3156C25.5849 32.0086 33.208 24.4236 42.5618 24.4236C47.0945 24.4236 51.3593 26.1866 54.5528 29.3846C56.1343 30.9505 57.3876 32.8133 58.2399 34.8649C59.0923 36.9165 59.5267 39.1161 59.5181 41.3361C59.5593 50.643 51.9362 58.2075 42.5824 58.2075ZM51.895 45.5795C51.3799 45.3335 48.8663 44.1035 48.4131 43.9191C47.9392 43.7551 47.6095 43.673 47.2593 44.165C46.909 44.6775 45.9407 45.8255 45.6523 46.1535C45.3638 46.502 45.0548 46.543 44.5397 46.2765C44.0246 46.0305 42.3764 45.477 40.4397 43.7551C38.9151 42.4021 37.9055 40.7416 37.5965 40.2291C37.308 39.7166 37.5553 39.4501 37.8231 39.1836C38.0497 38.9581 38.3382 38.5891 38.5854 38.3021C38.8327 38.0151 38.9357 37.7896 39.1005 37.4616C39.2653 37.1131 39.1829 36.8261 39.0593 36.5801C38.9357 36.3341 37.9055 33.8331 37.4935 32.8081C37.0814 31.8241 36.6487 31.9471 36.3397 31.9266H35.3508C35.0005 31.9266 34.4648 32.0496 33.991 32.5621C33.5377 33.0746 32.2191 34.3046 32.2191 36.8056C32.2191 39.3066 34.0528 41.7256 34.3 42.0536C34.5472 42.4021 37.9055 47.527 43.0151 49.7205C44.2307 50.2535 45.1784 50.561 45.9201 50.7865C47.1357 51.176 48.2482 51.1145 49.1342 50.9915C50.1231 50.848 52.1628 49.7615 52.5749 48.5725C53.0075 47.3835 53.0075 46.379 52.8633 46.1535C52.7191 45.928 52.41 45.8255 51.895 45.5795Z" fill="var(--fill-0, black)"/>
</g>
</svg>
