<svg preserveAspectRatio="none" width="100%" height="100%" overflow="visible" style="display: block;" viewBox="0 0 85 85" fill="none" xmlns="http://www.w3.org/2000/svg">
<g id="material-symbols:mail-outline">
<rect width="85" height="85" rx="40" fill="var(--fill-0, #D9D9D9)"/>
<path id="Vector" d="M26.1 59C24.9725 59 24.0076 58.5964 23.2054 57.7893C22.4032 56.9822 22.0014 56.0107 22 54.875V30.125C22 28.9906 22.4018 28.0199 23.2054 27.2127C24.009 26.4056 24.9739 26.0014 26.1 26H58.9C60.0275 26 60.993 26.4042 61.7966 27.2127C62.6002 28.0212 63.0014 28.992 63 30.125V54.875C63 56.0094 62.5989 56.9808 61.7966 57.7893C60.9944 58.5978 60.0289 59.0014 58.9 59H26.1ZM42.5 44.5625L26.1 34.25V54.875H58.9V34.25L42.5 44.5625ZM42.5 40.4375L58.9 30.125H26.1L42.5 40.4375ZM26.1 34.25V30.125V54.875V34.25Z" fill="var(--fill-0, black)"/>
</g>
</svg>
