<svg preserveAspectRatio="none" width="100%" height="100%" overflow="visible" style="display: block;" viewBox="0 0 85 85" fill="none" xmlns="http://www.w3.org/2000/svg">
<g id="tabler:phone-call">
<path d="M0 40C0 17.9086 17.9086 0 40 0H45C67.0914 0 85 17.9086 85 40V45C85 67.0914 67.0914 85 45 85H40C17.9086 85 0 67.0914 0 45V40Z" fill="var(--fill-0, #D9D9D9)"/>
<path id="Vector" d="M49.3333 31.1111C50.5415 31.1111 51.7003 31.5911 52.5546 32.4454C53.4089 33.2997 53.8889 34.4585 53.8889 35.6667M49.3333 22C52.958 22 56.4341 23.4399 58.9971 26.0029C61.5601 28.5659 63 32.042 63 35.6667M26.5556 24.2778H35.6667L40.2222 35.6667L34.5278 39.0833C36.9672 44.0296 40.9704 48.0328 45.9167 50.4722L49.3333 44.7778L60.7222 49.3333V58.4444C60.7222 59.6527 60.2423 60.8114 59.3879 61.6657C58.5336 62.52 57.3749 63 56.1667 63C47.2817 62.4601 38.9015 58.687 32.6072 52.3928C26.313 46.0985 22.5399 37.7183 22 28.8333C22 27.6251 22.48 26.4664 23.3343 25.6121C24.1886 24.7577 25.3473 24.2778 26.5556 24.2778Z" stroke="var(--stroke-0, black)" stroke-width="4" stroke-linecap="round" stroke-linejoin="round"/>
</g>
</svg>
