<svg preserveAspectRatio="none" width="100%" height="100%" overflow="visible" style="display: block;" viewBox="0 0 85 85" fill="none" xmlns="http://www.w3.org/2000/svg">
<g id="mynaui:telegram">
<path d="M0 40C0 17.9086 17.9086 0 40 0H45C67.0914 0 85 17.9086 85 40V45C85 67.0914 67.0914 85 45 85H40C17.9086 85 0 67.0914 0 45V40Z" fill="var(--fill-0, #D9D9D9)"/>
<path id="Vector" d="M38.6576 47.5L48.2254 53.56L55.7332 58.45C56.2866 58.81 56.5634 58.99 56.8119 58.99C56.9192 58.9907 57.0255 58.9695 57.1239 58.9277C57.2223 58.886 57.3107 58.8246 57.3833 58.7475C57.555 58.575 57.6062 58.2575 57.7087 57.6225L63 25L23.7242 40.9325C22.7121 41.3425 22.2073 41.55 22.0766 41.8175C22.0199 41.9318 21.994 42.0583 22.0012 42.1851C22.0083 42.312 22.0484 42.4349 22.1176 42.5425C22.279 42.7925 22.8043 42.9425 23.86 43.245L38.6576 47.5ZM63 25L38.6576 47.5M38.6576 47.5L39.0573 58.25C39.0573 59.085 39.0573 59.5025 39.2341 59.7125C39.3879 59.8975 39.6185 60.0025 39.8645 60C40.1463 59.9975 40.4794 59.73 41.1457 59.2L48.2254 53.56" stroke="var(--stroke-0, black)" stroke-width="4" stroke-linecap="round" stroke-linejoin="round"/>
</g>
</svg>
