<svg width="1274" height="305" viewBox="0 0 1274 305" fill="none" xmlns="http://www.w3.org/2000/svg">
<path d="M698.136 122.054H761.831L841.126 15.8672H777.43L698.136 122.054Z" fill="white"/>
<path d="M865.339 244.087H923.986L1106.25 0H1047.61L865.339 244.087Z" fill="white"/>
<path d="M1209.74 122.054L1130.46 228.24H1194.16L1273.45 122.054H1209.74Z" fill="white"/>
<path d="M39.7504 48.5918H0V206.439H39.7504V48.5918Z" fill="white"/>
<path d="M194.446 48.8799H154.695V120.323C154.881 120.323 154.922 121.725 154.839 124.507C154.736 127.288 154.695 130.503 154.695 134.15L106.579 48.8799H68.8477V206.439H108.598V125.784L118.386 144.227L154.098 206.439H194.425V48.8799H194.446Z" fill="white"/>
<path d="M309.081 120.323C309.266 120.323 309.328 121.725 309.225 124.507C309.122 127.288 309.081 130.503 309.081 134.15L260.985 48.8799H223.254V206.439H263.004V125.784L272.792 144.227L308.504 206.439H348.831V48.8799H309.081V120.323Z" fill="white"/>
<path d="M487.967 59.9657C481.826 55.4528 474.82 52.094 466.948 49.8891C459.076 47.6841 450.999 46.5713 442.756 46.5713C434.699 46.5713 426.724 47.6841 418.852 49.8891C410.98 52.094 404.015 55.4528 397.957 59.9657C391.919 64.4785 387.015 70.1454 383.264 76.9662C379.514 83.787 377.639 91.7001 377.639 100.726V154.592C377.639 163.618 379.514 171.489 383.264 178.207C387.015 184.925 391.96 190.55 398.101 195.063C404.242 199.576 411.248 202.935 419.12 205.14C426.992 207.345 434.967 208.458 443.024 208.458C451.287 208.458 459.303 207.345 467.072 205.14C474.841 202.935 481.806 199.576 487.967 195.063C494.108 190.55 499.053 184.925 502.804 178.207C506.554 171.489 508.429 163.618 508.429 154.592V100.726C508.429 91.7001 506.554 83.787 502.804 76.9662C499.053 70.1454 494.108 64.4785 487.967 59.9657ZM468.37 154.592C468.37 160.156 465.732 164.38 460.457 167.265C455.182 170.15 449.371 171.592 443.024 171.592C439.953 171.592 436.883 171.262 433.813 170.582C430.742 169.923 427.96 168.852 425.467 167.409C422.973 165.967 420.995 164.195 419.553 162.072C418.11 159.97 417.389 157.456 417.389 154.592V100.726C417.389 97.8409 418.11 95.2444 419.553 92.957C420.995 90.6491 422.912 88.7739 425.323 87.3521C427.713 85.9096 430.412 84.8173 433.4 84.0343C436.368 83.2718 439.397 82.8803 442.467 82.8803C445.723 82.8803 448.897 83.2101 451.967 83.8901C455.037 84.5702 457.819 85.6211 460.313 87.0635C462.806 88.506 464.784 90.3812 466.206 92.6891C467.649 94.9971 468.37 97.676 468.37 100.746V154.592Z" fill="white"/>
<path d="M643.507 66.1689C638.706 60.9761 632.709 56.8135 625.497 53.64C618.305 50.4666 609.898 48.8799 600.295 48.8799H537.218V206.439H576.968V160.362H600.295C609.898 160.362 618.305 158.776 625.497 155.602C632.689 152.429 638.706 148.204 643.507 142.929C648.309 137.654 651.894 131.657 654.305 124.919C656.696 118.201 657.911 111.38 657.911 104.477C657.911 97.553 656.716 90.7528 654.305 84.0144C651.915 77.2966 648.309 71.3412 643.507 66.1689ZM613.689 118.881C610.701 122.92 606.25 124.939 600.295 124.939H576.968V86.0545H600.295C606.25 86.0545 610.701 88.0739 613.689 92.0922C616.657 96.1311 618.161 100.582 618.161 105.487C618.161 110.391 616.677 114.842 613.689 118.881Z" fill="#201C2D"/>
<path d="M800.2 135.159C805.578 126.813 808.278 115.336 808.278 100.746C808.072 91.5348 806.444 83.6011 803.373 76.9864C800.303 70.351 796.182 64.9932 790.989 60.8513C785.816 56.7299 779.655 53.7008 772.566 51.7844C765.457 49.868 757.874 48.8994 749.816 48.8994H686.739V206.458H727.067V160.753L777.45 228.24H841.145L782.87 150.202C790.061 146.884 795.872 141.897 800.2 135.159ZM750.373 86.0328C756.72 86.0328 761.418 87.9079 764.488 91.6377C767.559 95.3881 769.104 99.5095 769.104 104.022C769.104 108.535 767.559 112.657 764.488 116.407C761.418 120.157 756.72 122.012 750.373 122.012H727.046V86.0121H750.373V86.0328Z" fill="#201C2D"/>
<path d="M947.394 59.9657C941.253 55.4528 934.247 52.094 926.375 49.8891C918.503 47.6841 910.425 46.5713 902.183 46.5713C894.125 46.5713 886.151 47.6841 878.279 49.8891C870.407 52.094 863.442 55.4528 857.384 59.9657C851.346 64.4785 846.442 70.1454 842.691 76.9662C838.941 83.787 837.065 91.7001 837.065 100.726V154.592C837.065 163.618 838.941 171.489 842.691 178.207C846.442 184.925 851.387 190.55 857.528 195.063C863.669 199.576 870.675 202.935 878.547 205.14C886.419 207.345 894.393 208.458 902.451 208.458C910.714 208.458 918.73 207.345 926.499 205.14C934.267 202.935 941.232 199.576 947.394 195.063C953.535 190.55 958.48 184.925 962.231 178.207C965.981 171.489 967.856 163.618 967.856 154.592V100.726C967.856 91.7001 965.981 83.787 962.231 76.9662C958.48 70.1454 953.535 64.4785 947.394 59.9657ZM927.817 154.592C927.817 160.156 925.18 164.38 919.904 167.265C914.629 170.15 908.818 171.592 902.471 171.592C899.401 171.592 896.33 171.262 893.26 170.582C890.19 169.923 887.408 168.852 884.914 167.409C882.421 165.967 880.443 164.195 879 162.072C877.558 159.97 876.836 157.456 876.836 154.592V100.726C876.836 97.8409 877.558 95.2444 879 92.957C880.443 90.6491 882.359 88.7739 884.77 87.3521C887.16 85.9096 889.86 84.8173 892.848 84.0343C895.815 83.2718 898.844 82.8803 901.915 82.8803C905.171 82.8803 908.344 83.2101 911.414 83.8901C914.485 84.5702 917.267 85.6211 919.76 87.0635C922.254 88.506 924.232 90.3812 925.654 92.6891C927.096 94.9971 927.817 97.676 927.817 100.746V154.592Z" fill="#201C2D"/>
<path d="M1055.85 148.265H1082.49V154.035C1082.49 160.176 1080.08 164.792 1075.3 167.862C1070.5 170.933 1065.22 172.478 1059.45 172.478C1053.68 172.478 1048.41 170.933 1043.61 167.862C1038.8 164.792 1036.41 160.176 1036.41 154.035V99.8808C1036.41 94.111 1038.66 89.6599 1043.17 86.4865C1047.69 83.313 1052.71 81.7263 1058.3 81.7263C1062.71 81.7263 1066.99 82.8392 1071.12 85.0441C1075.24 87.249 1078.37 90.7521 1080.47 95.5535L1113.61 79.9954C1110.93 73.6692 1107.51 68.3733 1103.39 64.1489C1099.27 59.9245 1094.75 56.5243 1089.85 53.9279C1084.94 51.3315 1079.85 49.4563 1074.58 48.3023C1069.3 47.1483 1064.07 46.5713 1058.88 46.5713C1051.19 46.5713 1043.61 47.6841 1036.13 49.8891C1028.65 52.094 1021.97 55.4528 1016.1 59.9657C1010.24 64.4785 1005.55 70.0424 1001.98 76.6778C998.436 83.2925 996.644 91.0407 996.644 99.8603V154.015C996.644 163.04 998.416 170.974 1001.98 177.774C1005.53 184.595 1010.24 190.262 1016.1 194.775C1021.95 199.288 1028.63 202.688 1036.13 204.996C1043.61 207.304 1051.19 208.458 1058.88 208.458C1066.75 208.458 1074.43 207.304 1081.91 204.996C1089.39 202.688 1096.03 199.288 1101.78 194.775C1107.55 190.262 1112.14 184.595 1115.61 177.774C1119.07 170.953 1120.8 163.04 1120.8 154.015V114.841H1080.95L1055.85 148.265Z" fill="#201C2D"/>
<path d="M1194.16 15.8672H1130.46L1209.74 122.054H1273.45L1194.16 15.8672Z" fill="#201C2D"/>
<path d="M1.19519 244.169H0V304.032H1.19519V304.052H39.1528V297.17H7.56266V277.243H36.9685V270.36H7.56266V251.011H39.1528V244.148H1.19519V244.169Z" fill="#201C2D"/>
<path d="M127.04 252.556C124.155 249.877 120.652 247.775 116.593 246.312C112.595 244.87 108.061 244.148 103.157 244.148H81.0254V304.032H103.157C108.082 304.032 112.595 303.31 116.593 301.868C120.631 300.405 124.155 298.324 127.02 295.686C129.904 293.028 132.151 289.813 133.655 286.104C135.139 282.477 135.901 278.438 135.901 274.09C135.901 269.804 135.139 265.786 133.655 262.138C132.151 258.47 129.925 255.235 127.04 252.556ZM126.587 283.713C125.433 286.495 123.784 288.906 121.641 290.864C119.498 292.822 116.86 294.388 113.79 295.48C110.678 296.593 107.093 297.17 103.116 297.17H88.5468V251.011H103.116C107.072 251.011 110.658 251.567 113.79 252.7C116.86 253.792 119.478 255.359 121.621 257.357C123.764 259.356 125.433 261.767 126.566 264.57C127.741 267.434 128.338 270.628 128.338 274.111C128.359 277.614 127.761 280.849 126.587 283.713Z" fill="#201C2D"/>
<path d="M216.206 282.621C216.206 285.115 215.815 287.361 215.011 289.298C214.249 291.173 213.157 292.801 211.797 294.099C210.437 295.397 208.85 296.366 206.933 297.046C204.976 297.747 202.75 298.118 200.298 298.118C197.887 298.118 195.682 297.767 193.724 297.046C191.787 296.345 190.18 295.377 188.82 294.079C187.439 292.78 186.368 291.173 185.605 289.298C184.822 287.361 184.41 285.115 184.41 282.621V244.149H176.868V282.621C176.868 285.939 177.425 288.989 178.537 291.688C179.671 294.45 181.299 296.861 183.401 298.839C185.502 300.838 188.058 302.383 190.963 303.434C193.807 304.464 196.96 305 200.339 305C203.739 305 206.913 304.485 209.756 303.434C212.683 302.383 215.217 300.838 217.299 298.818C219.359 296.84 220.987 294.45 222.12 291.668C223.233 288.968 223.79 285.918 223.79 282.601V244.128H216.227V282.621H216.206Z" fill="#201C2D"/>
<path d="M317.22 257.111L322.557 252.247C309.307 240.192 287.752 240.192 274.502 252.247C268.073 258.079 264.549 265.848 264.549 274.09C264.549 282.333 268.093 290.102 274.502 295.934C281.117 301.951 289.833 304.959 298.529 304.959C307.225 304.959 315.942 301.951 322.557 295.934L317.22 291.07C306.916 300.446 290.142 300.446 279.839 291.07C274.852 286.537 272.091 280.499 272.091 274.07C272.091 267.641 274.832 261.623 279.839 257.069C290.142 247.734 306.896 247.734 317.22 257.111Z" fill="#201C2D"/>
<path d="M381.904 244.17L358.206 304.053H366.243L372.383 288.536H402.531L408.672 304.053H416.688L392.99 244.17H381.904ZM375.104 281.654L387.468 250.434L399.832 281.654H375.104Z" fill="#201C2D"/>
<path d="M470.182 244.148H462.62H442.569V251.011H462.62V304.032H470.182V251.011H490.233V244.148H470.182Z" fill="#201C2D"/>
<path d="M537.114 244.17H529.572V304.053H537.114V244.17Z" fill="#201C2D"/>
<path d="M611.895 243.201C593.535 243.201 578.615 257.069 578.615 274.091C578.615 291.132 593.555 304.98 611.895 304.98C630.256 304.98 645.196 291.112 645.196 274.091C645.175 257.069 630.256 243.201 611.895 243.201ZM611.895 298.139C597.697 298.139 586.157 287.361 586.157 274.111C586.157 260.861 597.697 250.084 611.895 250.084C626.093 250.084 637.633 260.861 637.633 274.111C637.633 287.341 626.093 298.139 611.895 298.139Z" fill="#201C2D"/>
<path d="M726.345 277.862C726.345 284.353 727.21 293.585 727.21 293.585C727.21 293.585 724.202 287.3 717.752 278.274L693.436 244.17H686.656V304.053H694.198V270.361C694.198 263.87 693.333 254.638 693.333 254.638C693.333 254.638 696.362 260.944 702.791 269.97L727.107 304.074H733.887V244.191H726.345V277.862Z" fill="#201C2D"/>
</svg>
